<svg width="10" height="8" viewBox="0 0 10 8" fill="none" xmlns="http://www.w3.org/2000/svg">
<path d="M9.6144 3.55195L6.3632 0.300746C6.1152 0.0527461 5.7136 0.0527461 5.4656 0.300746L5.1856 0.580746C4.9376 0.828746 4.9376 1.23035 5.1856 1.47835L7.2608 3.55355C7.3856 3.67835 7.4464 3.83995 7.4464 4.00155C7.4464 4.16315 7.384 4.32635 7.2608 4.44955L5.1856 6.52475C4.9376 6.77275 4.9376 7.17435 5.1856 7.42235L5.4656 7.70235C5.7136 7.94715 6.1152 7.94715 6.3632 7.69915L9.6144 4.44795C9.7392 4.32315 9.8 4.16155 9.8 3.99995C9.8 3.83835 9.7376 3.67515 9.6144 3.55195ZM4.8144 3.55195L1.5632 0.300746C1.3152 0.0527461 0.9136 0.0527461 0.6656 0.300746L0.3856 0.580746C0.1376 0.828746 0.1376 1.23035 0.3856 1.47835L2.4608 3.55355C2.5856 3.67835 2.6464 3.83995 2.6464 4.00155C2.6464 4.16315 2.584 4.32635 2.4608 4.44955L0.3856 6.52475C0.1376 6.77275 0.1376 7.17435 0.3856 7.42235L0.6656 7.70235C0.9136 7.94715 1.3152 7.94715 1.5632 7.69915L4.8144 4.44795C4.9392 4.32315 5 4.16155 5 3.99995C5 3.83835 4.9376 3.67515 4.8144 3.55195Z" fill="black"/>
</svg>
